<svg aria-hidden="true" style="position: absolute; width: 0; height: 0; overflow: hidden;" version="1.1" xmlns="http://www.w3.org/2000/svg" xmlns:xlink="http://www.w3.org/1999/xlink">
<defs>

<symbol id="icon-hamburger" viewBox="0 0 24 24">
<path d="M3 18h18v-2H3v2zm0-5h18v-2H3v2zm0-7v2h18V6H3z"></path>
</symbol>

<symbol id="icon-search" viewBox="0 0 24 24">
<path d="M20.49,19l-5.73-5.73C15.53,12.2,16,10.91,16,9.5C16,5.91,13.09,3,9.5,3S3,5.91,3,9.5C3,13.09,5.91,16,9.5,16 c1.41,0,2.7-0.47,3.77-1.24L19,20.49L20.49,19z M5,9.5C5,7.01,7.01,5,9.5,5S14,7.01,14,9.5S11.99,14,9.5,14S5,11.99,5,9.5z"></path>
</symbol>

<symbol id="icon-refresh" viewBox="0 0 24 24">
<path d="M13 9v2h7V4h-2v2.74C16.53 5.07 14.4 4 12 4c-2.21 0-4.21.9-5.66 2.34S4 9.79 4 12c0 4.42 3.58 8 8 8 2.21 0 4.21-.9 5.66-2.34l-1.42-1.42A5.98 5.98 0 0 1 12 18c-3.31 0-6-2.69-6-6 0-1.65.67-3.15 1.76-4.24A5.98 5.98 0 0 1 12 6a6.01 6.01 0 0 1 5.19 3H13z"></path>
</symbol>

<symbol id="icon-list" viewBox="0 0 24 24">
<path d="M20,9 L4,9 L4,5 L20,5 L20,9 Z M20,19 L4,19 L4,15 L20,15 L20,19 Z M3,3 C2.45,3 2,3.45 2,4 L2,10 C2,10.55 2.45,11 3,11 L21,11 C21.55,11 22,10.55 22,10 L22,4 C22,3.45 21.55,3 21,3 L3,3 Z M3,13 C2.45,13 2,13.45 2,14 L2,20 C2,20.55 2.45,21 3,21 L21,21 C21.55,21 22,20.55 22,20 L22,14 C22,13.45 21.55,13 21,13 L3,13 Z"></path>
</symbol>

<symbol id="icon-grid" viewBox="0 0 24 24">
<path d="M3,3 L10,3 C10.55,3 11,3.45 11,4 L11,10 C11,10.55 10.55,11 10,11 L3,11 C2.45,11 2,10.55 2,10 L2,4 C2,3.45 2.45,3 3,3 Z M3,13 L10,13 C10.55,13 11,13.45 11,14 L11,20 C11,20.55 10.55,21 10,21 L3,21 C2.45,21 2,20.55 2,20 L2,14 C2,13.45 2.45,13 3,13 Z M14,3 L21,3 C21.55,3 22,3.45 22,4 L22,10 C22,10.55 21.55,11 21,11 L14,11 C13.45,11 13,10.55 13,10 L13,4 C13,3.45 13.45,3 14,3 Z M14,13 L21,13 C21.55,13 22,13.45 22,14 L22,20 C22,20.55 21.55,21 21,21 L14,21 C13.45,21 13,20.55 13,20 L13,14 C13,13.45 13.45,13 14,13 Z M9,9 L9,5 L4,5 L4,9 L9,9 Z M9,19 L9,15 L4,15 L4,19 L9,19 Z M20,9 L20,5 L15,5 L15,9 L20,9 Z M20,19 L20,15 L15,15 L15,19 L20,19 Z"></path>
</symbol>

<symbol id="icon-cog" viewBox="0 0 24 24">
<path d="M13.85 22.25h-3.7c-.74 0-1.36-.54-1.45-1.27l-.27-1.89c-.27-.14-.53-.29-.79-.46l-1.8.72c-.7.26-1.47-.03-1.81-.65L2.2 15.53c-.35-.66-.2-1.44.36-1.88l1.53-1.19c-.01-.15-.02-.3-.02-.46 0-.15.01-.31.02-.46l-1.52-1.19c-.59-.45-.74-1.26-.37-1.88l1.85-3.19c.34-.62 1.11-.9 1.79-.63l1.81.73c.26-.17.52-.32.78-.46l.27-1.91c.09-.7.71-1.25 1.44-1.25h3.7c.74 0 1.36.54 1.45 1.27l.27 1.89c.27.14.53.29.79.46l1.8-.72c.71-.26 1.48.03 1.82.65l1.84 3.18c.36.66.2 1.44-.36 1.88l-1.52 1.19c.01.15.02.3.02.46s-.01.31-.02.46l1.52 1.19c.56.45.72 1.23.37 1.86l-1.86 3.22c-.34.62-1.11.9-1.8.63l-1.8-.72c-.26.17-.52.32-.78.46l-.27 1.91c-.1.68-.72 1.22-1.46 1.22zm-3.23-2h2.76l.37-2.55.53-.22c.44-.18.88-.44 1.34-.78l.45-.34 2.38.96 1.38-2.4-2.03-1.58.07-.56c.03-.26.06-.51.06-.78s-.03-.53-.06-.78l-.07-.56 2.03-1.58-1.39-2.4-2.39.96-.45-.35c-.42-.32-.87-.58-1.33-.77l-.52-.22-.37-2.55h-2.76l-.37 2.55-.53.21c-.44.19-.88.44-1.34.79l-.45.33-2.38-.95-1.39 2.39 2.03 1.58-.07.56a7 7 0 0 0-.06.79c0 .26.02.53.06.78l.07.56-2.03 1.58 1.38 2.4 2.39-.96.45.35c.43.33.86.58 1.33.77l.53.22.38 2.55z"></path>
<circle cx="12" cy="12" r="3.5"/>
</symbol>

<symbol id="icon-apps" viewBox="0 0 24 24">
<path d="M6,8c1.1,0 2,-0.9 2,-2s-0.9,-2 -2,-2 -2,0.9 -2,2 0.9,2 2,2zM12,20c1.1,0 2,-0.9 2,-2s-0.9,-2 -2,-2 -2,0.9 -2,2 0.9,2 2,2zM6,20c1.1,0 2,-0.9 2,-2s-0.9,-2 -2,-2 -2,0.9 -2,2 0.9,2 2,2zM6,14c1.1,0 2,-0.9 2,-2s-0.9,-2 -2,-2 -2,0.9 -2,2 0.9,2 2,2zM12,14c1.1,0 2,-0.9 2,-2s-0.9,-2 -2,-2 -2,0.9 -2,2 0.9,2 2,2zM16,6c0,1.1 0.9,2 2,2s2,-0.9 2,-2 -0.9,-2 -2,-2 -2,0.9 -2,2zM12,8c1.1,0 2,-0.9 2,-2s-0.9,-2 -2,-2 -2,0.9 -2,2 0.9,2 2,2zM18,14c1.1,0 2,-0.9 2,-2s-0.9,-2 -2,-2 -2,0.9 -2,2 0.9,2 2,2zM18,20c1.1,0 2,-0.9 2,-2s-0.9,-2 -2,-2 -2,0.9 -2,2 0.9,2 2,2z"></path>
</symbol>

<symbol id="icon-light-bulb" viewBox="0 0 24 24">
<path d="M9 21c0 .55.45 1 1 1h4c.55 0 1-.45 1-1v-1H9v1zm3-19C8.14 2 5 5.14 5 9c0 2.38 1.19 4.47 3 5.74V17c0 .55.45 1 1 1h6c.55 0 1-.45 1-1v-2.26c1.81-1.27 3-3.36 3-5.74 0-3.86-3.14-7-7-7zm2.85 11.1l-.85.6V16h-4v-2.3l-.85-.6A4.997 4.997 0 0 1 7 9c0-2.76 2.24-5 5-5s5 2.24 5 5c0 1.63-.8 3.16-2.15 4.1z"></path>
</symbol>

<symbol id="icon-bell" viewBox="0 0 24 24">
<path d="M18 17v-6c0-3.07-1.63-5.64-4.5-6.32V4c0-.83-.67-1.5-1.5-1.5s-1.5.67-1.5 1.5v.68C7.64 5.36 6 7.92 6 11v6H4v2h16v-2h-2zm-2 0H8v-6c0-2.48 1.51-4.5 4-4.5s4 2.02 4 4.5v6zm-4 5c1.1 0 2-.9 2-2h-4c0 1.1.9 2 2 2z"></path>
</symbol>

<symbol id="icon-bell-filled" viewBox="0 0 24 24">
<path d="M18 17v-6c0-3.07-1.63-5.64-4.5-6.32V4c0-.83-.67-1.5-1.5-1.5s-1.5.67-1.5 1.5v.68C7.64 5.36 6 7.92 6 11v6H4v2h16v-2h-2zm-2 0H8v-6c0-2.48 1.51-4.5 4-4.5s4 2.02 4 4.5v6zm-4 5c1.1 0 2-.9 2-2h-4c0 1.1.9 2 2 2z"></path>
<path d="M13 9h-2v2H9v2h2v2h2v-2h2v-2h-2z"/>
</symbol>

<symbol id="icon-pencil" viewBox="0 0 24 24">
<path d="M20.41 4.94l-1.35-1.35c-.78-.78-2.05-.78-2.83 0L13.4 6.41 3 16.82V21h4.18l10.46-10.46 2.77-2.77c.79-.78.79-2.05 0-2.83zm-14 14.12L5 19v-1.36l9.82-9.82 1.41 1.41-9.82 9.83z"></path>
</symbol>

<symbol id="icon-archive" viewBox="0 0 24 24">
<path d="M20.54 5.23l-1.39-1.68C18.88 3.21 18.47 3 18 3H6c-.47 0-.88.21-1.16.55L3.46 5.23C3.17 5.57 3 6.02 3 6.5V19c0 1.1.9 2 2 2h14c1.1 0 2-.9 2-2V6.5c0-.48-.17-.93-.46-1.27zM6.24 5h11.52l.83 1H5.42l.82-1zM5 19V8h14v11H5zm11-5.5l-4 4-4-4 1.41-1.41L11 13.67V10h2v3.67l1.59-1.59L16 13.5z"></path>
</symbol>

<symbol id="icon-trash-bin" viewBox="0 0 24 24">
<path d="M15 4V3H9v1H4v2h1v13c0 1.1.9 2 2 2h10c1.1 0 2-.9 2-2V6h1V4h-5zm2 15H7V6h10v13z"></path>
<path d="M9 8h2v9H9zm4 0h2v9h-2z"></path>
</symbol>

<symbol id="icon-checkbox" viewBox="0 0 24 24">
<path d="M19 3H5c-1.1 0-2 .9-2 2v14c0 1.1.9 2 2 2h14c1.1 0 2-.9 2-2V5c0-1.1-.9-2-2-2zm0 16H5V5h14v14z"></path>
</symbol>

<symbol id="icon-checkbox-checked" viewBox="0 0 24 24">
<path d="M19 3H5c-1.1 0-2 .9-2 2v14c0 1.1.9 2 2 2h14c1.1 0 2-.9 2-2V5c0-1.1-.9-2-2-2zm0 16H5V5h14v14z"></path>
<path d="M18 9l-1.4-1.4-6.6 6.6-2.6-2.6L6 13l4 4z"></path>
</symbol>

<symbol id="icon-brush" viewBox="0 0 24 24">
<path d="M18.64 4.75L20 6.11l-7.79 7.79-1.36-1.36 7.79-7.79m0-2c-.51 0-1.02.2-1.41.59l-7.79 7.79c-.78.78-.78 2.05 0 2.83l1.36 1.36c.39.39.9.59 1.41.59.51 0 1.02-.2 1.41-.59l7.79-7.79c.78-.78.78-2.05 0-2.83l-1.35-1.35c-.39-.4-.9-.6-1.42-.6zM7 14.25c-1.66 0-3 1.34-3 3 0 1.31-1.16 2-2 2 .92 1.22 2.49 2 4 2 2.21 0 4-1.79 4-4 0-1.66-1.34-3-3-3z"></path>
</symbol>

<symbol id="icon-image" viewBox="0 0 24 24">
<path d="M19 3H5c-1.1 0-2 .9-2 2v14c0 1.1.9 2 2 2h14c1.1 0 2-.9 2-2V5c0-1.1-.9-2-2-2zm0 16H5V5h14v14zm-5-7l-3 3.72L9 13l-3 4h12l-4-5z"></path>
</symbol>

<symbol id="icon-pin" viewBox="0 0 24 24">
<path d="M17 4v7l2 3v2h-6v5l-1 1-1-1v-5H5v-2l2-3V4c0-1.1.9-2 2-2h6c1.11 0 2 .89 2 2zM9 4v7.75L7.5 14h9L15 11.75V4H9z"></path>
</symbol>

<symbol id="icon-pin-filled" viewBox="0 0 24 24">
<path d="M17 4a2 2 0 0 0-2-2H9c-1.1 0-2 .9-2 2v7l-2 3v2h6v5l1 1 1-1v-5h6v-2l-2-3V4z"></path>
</symbol>

<symbol id="icon-collaborator" viewBox="0 0 24 24">
<path d="M9 12c2.21 0 4-1.79 4-4s-1.79-4-4-4-4 1.79-4 4 1.79 4 4 4zm0-6c1.1 0 2 .9 2 2s-.9 2-2 2-2-.9-2-2 .9-2 2-2zm0 7c-2.67 0-8 1.34-8 4v3h16v-3c0-2.66-5.33-4-8-4zm6 5H3v-.99C3.2 16.29 6.3 15 9 15s5.8 1.29 6 2v1zm3-4v-3h-3V9h3V6h2v3h3v2h-3v3h-2z"></path>
</symbol>

<symbol id="icon-palette" viewBox="0 0 24 24">
<path d="M12 22C6.49 22 2 17.51 2 12S6.49 2 12 2s10 4.04 10 9c0 3.31-2.69 6-6 6h-1.77c-.28 0-.5.22-.5.5 0 .12.05.23.13.33.41.47.64 1.06.64 1.67A2.5 2.5 0 0 1 12 22zm0-18c-4.41 0-8 3.59-8 8s3.59 8 8 8c.28 0 .5-.22.5-.5a.54.54 0 0 0-.14-.35c-.41-.46-.63-1.05-.63-1.65a2.5 2.5 0 0 1 2.5-2.5H16c2.21 0 4-1.79 4-4 0-3.86-3.59-7-8-7z"></path>
<circle cx="6.5" cy="11.5" r="1.5"/>
<circle cx="9.5" cy="7.5" r="1.5"/>
<circle cx="14.5" cy="7.5" r="1.5"/>
<circle cx="17.5" cy="11.5" r="1.5"/>
</symbol>

<symbol id="icon-dots-three" viewBox="0 0 18 18">
<path d="m9 5.5c1 0 1.8-0.8 1.8-1.8s-0.8-1.7-1.8-1.7-1.8 0.8-1.8 1.8 0.8 1.7 1.8 1.7zm0 1.7c-1 0-1.8 0.8-1.8 1.8s0.8 1.8 1.8 1.8 1.8-0.8 1.8-1.8-0.8-1.8-1.8-1.8zm0 5.3c-1 0-1.8 0.8-1.8 1.8s0.8 1.7 1.8 1.7 1.8-0.8 1.8-1.8-0.8-1.7-1.8-1.7z"></path>
</symbol>

<symbol id="icon-dots-six" viewBox="0 0 20 20">
<circle cy="5.5" cx="7.5" r="1.5"/>
<circle cy="5.5" cx="12.5" r="1.5"/>
<circle cy="10.5" cx="7.5" r="1.5"/>
<circle cy="10.5" cx="12.5" r="1.5"/>
<circle cy="15.5" cx="7.5" r="1.5"/>
<circle cy="15.5" cx="12.5" r="1.5"/>
</symbol>

<symbol id="icon-backward" viewBox="0 0 24 24">
<path d="M14.1 8H7.83l2.59-2.59L9 4 4 9l5 5 1.41-1.41L7.83 10h6.27c2.15 0 3.9 1.57 3.9 3.5S16.25 17 14.1 17H7v2h7.1c3.25 0 5.9-2.47 5.9-5.5S17.35 8 14.1 8z"></path>
</symbol>

<symbol id="icon-forward" viewBox="0 0 24 24">
<path d="M9.9,8h6.27L13.58,5.41,15,4l5,5-5,5-1.41-1.41L16.17,10H9.9A3.72,3.72,0,0,0,6,13.5,3.72,3.72,0,0,0,9.9,17H17v2H9.9A5.72,5.72,0,0,1,4,13.5,5.72,5.72,0,0,1,9.9,8Z"></path>
</symbol>

<symbol id="icon-x" viewBox="0 0 18 18">
<path d="m14.53 4.53l-1.06-1.06-4.47 4.47-4.47-4.47-1.06 1.06 4.47 4.47-4.47 4.47 1.06 1.06 4.47-4.47 4.47 4.47 1.06-1.06-4.47-4.47z"></path>
</symbol>

<symbol id="icon-checkbox" viewBox="0 0 24 24">
<path d="M19 5v14H5V5h14m0-2H5c-1.1 0-2 .9-2 2v14c0 1.1.9 2 2 2h14c1.1 0 2-.9 2-2V5c0-1.1-.9-2-2-2z"></path>
</symbol>

<symbol id="icon-checkbox-checked" viewBox="0 0 24 24">
<path d="M19 5v14H5V5h14m0-2H5c-1.1 0-2 .9-2 2v14c0 1.1.9 2 2 2h14c1.1 0 2-.9 2-2V5c0-1.1-.9-2-2-2z"></path>
<path d="M18 9l-1.4-1.4-6.6 6.6-2.6-2.6L6 13l4 4z"></path>
</symbol>

<symbol id="icon-plus" viewBox="0 0 24 24">
<path d="M19,13H13v6H11V13H5V11h6V5h2v6h6Z"></path>
</symbol>

<symbol id="icon-chevron" viewBox="0 0 18 18">
<path d="M13.5,7.5,12.44,6.44,9,9.88,5.56,6.44,4.5,7.5,9,12Z"></path>
</symbol>

<symbol id="icon-color-item" viewBox="0 0 18 18">
<path class="color-item-outer" d="M9,0a9,9,0,1,0,9,9A9,9,0,0,0,9,0ZM9,16.82A7.82,7.82,0,1,1,16.82,9,7.83,7.83,0,0,1,9,16.82Z"></path>
<circle class="color-item-inner" cx="9" cy="9" r="7.82"/>
</symbol>

<symbol id="icon-tick" viewBox="0 0 18 18">
<!-- <rect class="cls-1" width="18" height="18"/> -->
<polygon class="cls-2" points="16.6 2.13 5.67 13.06 1.4 8.79 0 10.2 5.67 15.87 18 3.54 16.6 2.13"/>
</symbol>

<symbol id="icon-" viewBox="0 0 24 24">
<path d=""></path>
</symbol>




</defs>
</svg>
